<svg id="Layer_1" data-name="Layer 1" xmlns="http://www.w3.org/2000/svg" xmlns:xlink="http://www.w3.org/1999/xlink" viewBox="0 0 406 568.79"><defs><style>.cls-1,.cls-3{fill:#c4c5c2;}.cls-2{fill:url(#linear-gradient);}.cls-3{stroke:#888a85;stroke-miterlimit:2;stroke-width:14px;}.cls-4{fill:url(#linear-gradient-2);}.cls-5{fill:url(#linear-gradient-3);}.cls-6{fill:url(#linear-gradient-4);}.cls-7{fill:url(#linear-gradient-5);}.cls-8{fill:url(#linear-gradient-6);}.cls-9{fill:url(#linear-gradient-7);}.cls-10{fill:#888a85;}.cls-11{fill:url(#linear-gradient-8);}.cls-12{fill:url(#linear-gradient-9);}.cls-13{fill:url(#linear-gradient-10);}.cls-14{opacity:0.28;fill:url(#linear-gradient-11);}.cls-14,.cls-17,.cls-18,.cls-19,.cls-21,.cls-22,.cls-23{isolation:isolate;}.cls-15{fill:#d0d0d2;stroke:#b3b7b7;stroke-width:1.03px;}.cls-15,.cls-16,.cls-20,.cls-22,.cls-23{stroke-linecap:round;stroke-linejoin:bevel;}.cls-16{stroke:#000;stroke-width:0.52px;}.cls-17,.cls-22{opacity:0.87;}.cls-17{fill:url(#linear-gradient-12);}.cls-18{opacity:0.26;fill:url(#linear-gradient-13);}.cls-19{opacity:0.16;fill:url(#radial-gradient);}.cls-20{stroke-width:0.47px;fill:url(#linear-gradient-14);stroke:url(#linear-gradient-15);}.cls-21{opacity:0.78;fill:url(#linear-gradient-16);}.cls-22{stroke:#707575;stroke-opacity:0.51;stroke-width:0.49px;fill:url(#linear-gradient-17);}.cls-23{stroke:#999c9c;stroke-width:0.52px;opacity:0.87;}.cls-24{fill:#595c5c;}.cls-25{font-size:12px;font-family:CourierNewPSMT, Courier New;}.cls-25,.cls-27{fill:#fff;}.cls-26{fill:none;stroke:#fff;stroke-miterlimit:10;stroke-width:25px;}</style><linearGradient id="linear-gradient" x1="161.12" y1="799.76" x2="205.78" y2="743.97" gradientTransform="matrix(1.62, 0, 0, -1.62, 262.86, 1426.32)" gradientUnits="userSpaceOnUse"><stop offset="0" stop-color="#fff"/><stop offset="1" stop-color="#fff" stop-opacity="0"/></linearGradient><linearGradient id="linear-gradient-2" x1="771.49" y1="1076.58" x2="967.63" y2="949.46" gradientTransform="matrix(1, 0, 0, -1, -264.03, 1226)" xlink:href="#linear-gradient"/><linearGradient id="linear-gradient-3" x1="865.74" y1="1106.75" x2="895.98" y2="1058.73" gradientTransform="matrix(1.06, 0, 0, -1.06, -288.28, 1291.39)" xlink:href="#linear-gradient"/><linearGradient id="linear-gradient-4" x1="937.52" y1="1091.17" x2="984.28" y2="1019.07" gradientTransform="matrix(1.06, 0, 0, -1.06, -281.28, 1294.39)" xlink:href="#linear-gradient"/><linearGradient id="linear-gradient-5" x1="763.4" y1="1076.52" x2="811.7" y2="1027.52" gradientTransform="matrix(1.06, 0, 0, -1.06, -295.28, 1294.39)" xlink:href="#linear-gradient"/><linearGradient id="linear-gradient-6" x1="854.09" y1="1045.5" x2="910.65" y2="972.84" gradientTransform="matrix(1, 0, 0, -1, -265.03, 1226)" xlink:href="#linear-gradient"/><linearGradient id="linear-gradient-7" x1="818.9" y1="960.18" x2="862.3" y2="921.4" gradientTransform="matrix(0.91, 0, 0, -0.91, -254.11, 1117.76)" xlink:href="#linear-gradient"/><linearGradient id="linear-gradient-8" x1="797.71" y1="1067.26" x2="855.11" y2="1005.66" gradientTransform="matrix(1.21, 0, 0, -1.21, -328.46, 1481.05)" xlink:href="#linear-gradient"/><linearGradient id="linear-gradient-9" x1="659.55" y1="47.37" x2="659.55" y2="41.29" gradientTransform="matrix(1.01, 0, 0, -1, -24.38, 683.58)" gradientUnits="userSpaceOnUse"><stop offset="0" stop-color="#8f9091"/><stop offset="1" stop-color="#323b3b"/></linearGradient><linearGradient id="linear-gradient-10" x1="660.44" y1="37.18" x2="660.44" y2="29.58" gradientTransform="matrix(1.01, 0, 0, -0.95, -21.25, 670.26)" gradientUnits="userSpaceOnUse"><stop offset="0" stop-color="#d3d5d7"/><stop offset="0.5" stop-color="#86898a"/><stop offset="1" stop-color="#171b1b"/></linearGradient><linearGradient id="linear-gradient-11" x1="830.9" y1="42.69" x2="828.57" y2="45.73" gradientTransform="matrix(1.01, 0, 0, -1, -21.25, 683.58)" gradientUnits="userSpaceOnUse"><stop offset="0"/><stop offset="1" stop-color="#fbfcff" stop-opacity="0"/></linearGradient><linearGradient id="linear-gradient-12" x1="538.23" y1="152.31" x2="786.34" y2="152.31" gradientTransform="matrix(1, 0, 0, -0.99, -459.61, 608.67)" gradientUnits="userSpaceOnUse"><stop offset="0" stop-color="#9c5da6"/><stop offset="1" stop-color="#5b325b"/></linearGradient><linearGradient id="linear-gradient-13" x1="696.3" y1="227.7" x2="764.06" y2="59.86" gradientTransform="matrix(1.01, 0, 0, -1.01, -28.12, 692.96)" gradientUnits="userSpaceOnUse"><stop offset="0" stop-color="#fff"/><stop offset="1" stop-opacity="0"/></linearGradient><radialGradient id="radial-gradient" cx="601.83" cy="309.9" r="1.79" gradientTransform="matrix(1.26, 0, 0, -1.19, -112.96, 815.51)" xlink:href="#linear-gradient-13"/><linearGradient id="linear-gradient-14" x1="480.29" y1="67.02" x2="844.31" y2="67.02" gradientTransform="matrix(1, 0, 0, -0.96, -460.66, 620.91)" gradientUnits="userSpaceOnUse"><stop offset="0" stop-color="#676767"/><stop offset="0.02" stop-color="#fff"/><stop offset="0.04" stop-color="#dfdfe1"/><stop offset="0.96" stop-color="#efeff0"/><stop offset="0.98" stop-color="#fff"/><stop offset="1" stop-color="#676767"/></linearGradient><linearGradient id="linear-gradient-15" x1="480.33" y1="21.99" x2="845.33" y2="21.99" gradientTransform="matrix(1, 0, 0, -0.88, -459.64, 575.82)" xlink:href="#linear-gradient-14"/><linearGradient id="linear-gradient-16" x1="468.17" y1="45.85" x2="471.16" y2="48.71" gradientTransform="matrix(1.06, 0, 0, -1.01, -23.11, 686.67)" gradientUnits="userSpaceOnUse"><stop offset="0" stop-opacity="0.3"/><stop offset="1" stop-color="#fbfcff" stop-opacity="0"/></linearGradient><linearGradient id="linear-gradient-17" x1="660.01" y1="50.66" x2="660.01" y2="47.13" gradientTransform="matrix(1, 0, 0, -1.02, -16.9, 678.18)" gradientUnits="userSpaceOnUse"><stop offset="0" stop-color="#e5e6e8"/><stop offset="1" stop-color="#4c5252"/></linearGradient></defs><title>c2l</title><g id="layer1"><g id="g9947"><g id="g8748"><path id="path8750" class="cls-1" d="M645.69,191.07a71.09,71.09,0,0,1-142.17,0h0a71.09,71.09,0,0,1,142.17,0Z" transform="translate(-441.47 -73.5)"/><path id="path8752" class="cls-2" d="M646.47,190.26a71.09,71.09,0,0,1-142.17,0h0a71.09,71.09,0,0,1,142.17,0Z" transform="translate(-441.47 -73.5)"/></g><g id="g8754"><path id="path8756" class="cls-3" d="M644.47,80.5c-31.78,0-57.54,21.7-66.08,50.68-9.66-5-20.16-8.68-31.92-8.68a70,70,0,0,0-70,70c0,8.12,2.24,15.54,4.76,22.68-19.18,10.92-32.76,30.66-32.76,54.32a63.09,63.09,0,0,0,63,63h266a63.09,63.09,0,0,0,63-63c0-23.66-13.58-43.4-32.76-54.32,2.52-7.14,4.76-14.56,4.76-22.68a70,70,0,0,0-70-70c-11.76,0-22.26,3.64-31.92,8.68C702,102.2,676.25,80.5,644.47,80.5Z" transform="translate(-441.47 -73.5)"/><path id="path8758" class="cls-4" d="M644.47,87.5c-30.66,0-52.08,18.76-61.6,53.76-9.24-4.76-21.56-11.62-32.9-11.62-38.08,0-66.64,27.16-66.64,63.7,0,7.56,3.78,18.62,6.3,25.48C471,229,455.47,245.28,455.47,266c0,32.9,21.7,59.5,60.76,59.5H772.71c38.78,0,60.76-26.6,60.76-59.5,0-22.26-15.54-37.38-34.16-47.46,2.52-6.86,6.58-17.64,6.58-25.2,0-36.54-29.68-64-66.92-64-11.34,0-23,6.86-32.34,11.62-9.1-33.88-31.5-53.48-62.16-53.48Z" transform="translate(-441.47 -73.5)"/><g id="g8760"><path id="path8762" class="cls-1" d="M693.49,150.58a49,49,0,0,1-98.07,0h0a49,49,0,1,1,98.07,0Z" transform="translate(-441.47 -73.5)"/><path id="path8764" class="cls-5" d="M693.49,150.58a49,49,0,0,1-98.07,0h0a49,49,0,1,1,98.07,0Z" transform="translate(-441.47 -73.5)"/></g><rect id="rect8766" class="cls-1" x="70" y="112" width="280" height="126"/><path id="path8768" class="cls-1" d="M553.5,269.55a42,42,0,0,1-84.06,0h0a42,42,0,1,1,84.06,0Z" transform="translate(-441.47 -73.5)"/><g id="g8770"><path id="path8772" class="cls-1" d="M791.49,192.58a49,49,0,0,1-98.07,0h0a49,49,0,1,1,98.07,0Z" transform="translate(-441.47 -73.5)"/><path id="path8774" class="cls-6" d="M791.49,192.58a49,49,0,0,1-98.07,0h0a49,49,0,1,1,98.07,0Z" transform="translate(-441.47 -73.5)"/></g><g id="g8776"><path id="path8778" class="cls-1" d="M595.49,192.58a49,49,0,0,1-98.07,0h0a49,49,0,1,1,98.07,0Z" transform="translate(-441.47 -73.5)"/><path id="path8780" class="cls-7" d="M595.49,192.58a49,49,0,0,1-98.07,0h0a49,49,0,1,1,98.07,0Z" transform="translate(-441.47 -73.5)"/></g><g id="g8782"><path id="path8784" class="cls-1" d="M630.05,143.92c-50.12,0-90.58,40.88-90.58,91,0,33.18,18.9,60.76,45.5,76.58h90.58c26.6-15.82,45.5-43.82,45.5-77C721.05,184.38,680.17,143.92,630.05,143.92Z" transform="translate(-441.47 -73.5)"/><path id="path8786" class="cls-8" d="M630.47,143.5a91,91,0,0,0-91,91c0,33.32,18.76,61.18,45.5,77h91c26.74-15.82,45.5-43.68,45.5-77A91,91,0,0,0,630.47,143.5Z" transform="translate(-441.47 -73.5)"/></g><path id="path8788" class="cls-9" d="M553.5,269.55a42,42,0,0,1-84.06,0h0a42,42,0,1,1,84.06,0Z" transform="translate(-441.47 -73.5)"/><path id="path8790" class="cls-10" d="M818.91,194.88c-.14,37.52-45.78,51.94-45.78,51.94S806,224,805.75,194.88Z" transform="translate(-441.47 -73.5)"/><g id="g8792"><path id="path8794" class="cls-1" d="M749.67,255.32a56,56,0,1,1-112.09,0h0a56,56,0,0,1,112.09,0Z" transform="translate(-441.47 -73.5)"/><path id="path8796" class="cls-11" d="M749.67,255.32a56,56,0,1,1-112.09,0h0a56,56,0,0,1,112.09,0Z" transform="translate(-441.47 -73.5)"/></g></g></g></g><g id="layer1-2" data-name="layer1"><path id="rect3343" class="cls-12" d="M478.82,630.13H810.11c5.66,0,10.22,2.37,10.22,5.32l1.09,2.95c-4,2.23-5.65,3.89-11.31,3.89H478.82c-5.66,0-11.75-3.64-13.15-5.82l4-.63c0-2.94,3.54-5.7,9.2-5.7Z" transform="translate(-441.47 -73.5)"/><path id="rect3341" class="cls-13" d="M471.07,624.47a11.42,11.42,0,0,0-8.59,3.44v7.16c0,.25,0,.5,0,.75a11.4,11.4,0,0,0,8.63,3.49H817.87c3.95,0,7.34-1.64,9-4a9.22,9.22,0,0,1-.18-1.78v-5.28c-1.74-2.24-5-3.75-8.85-3.75H471.07Z" transform="translate(-441.47 -73.5)"/><path id="path3377" class="cls-14" d="M813.75,642.17l5-2.51c5.59-1.07,8-4.29,8-4.29l-15.88-.09L803,642.08l10.74.09Z" transform="translate(-441.47 -73.5)"/><path id="rect2453" class="cls-15" d="M515.3,437H774.55c5.7,0,10.32,4.89,10.32,10.92V624.66c0,6-4.62,10.92-10.32,10.92H515.3c-5.7,0-10.32-4.89-10.32-10.92V447.92C505,441.89,509.6,437,515.3,437Z" transform="translate(-441.47 -73.5)"/><rect id="rect3225" class="cls-16" x="64.99" y="365.37" width="276.45" height="194.42" rx="8.77" ry="8.77"/><rect id="rect3227" class="cls-17" x="78.62" y="378.61" width="248.11" height="157.44"/><rect x="136.53" y="421.5" width="133" height="76"/><path id="path3229" class="cls-18" d="M728.09,439.21,625.51,627.08l156.76.53s.51-170.76.29-178.38c-.22-8-3.6-9.82-10.57-9.9-7.33-.09-43.91-.11-43.91-.11Z" transform="translate(-441.47 -73.5)"/><path id="path3241" class="cls-19" d="M645.37,445.22a2.25,2.25,0,1,1-2.25-2.14A2.2,2.2,0,0,1,645.37,445.22Z" transform="translate(-441.47 -73.5)"/><rect id="rect3279" class="cls-20" x="20.97" y="550.98" width="364.56" height="10.76"/><path id="path3379" class="cls-21" d="M462.43,635.45l8.14.18,8.6,2.17,7,3.44-11.44.36-6.06-2.35c-5.11-1.44-6.25-3.8-6.25-3.8Z" transform="translate(-441.47 -73.5)"/><path id="rect3323" class="cls-22" d="M615.47,624V625a5.2,5.2,0,0,0,5.16,5.25h44.86a5.2,5.2,0,0,0,5.16-5.25V624Z" transform="translate(-441.47 -73.5)"/><rect id="rect3479" class="cls-23" x="350.45" y="555.79" width="13.29" height="1.39"/><rect id="rect3481" class="cls-24" x="64.74" y="550.3" width="276.94" height="0.43"/><text class="cls-25" transform="translate(159.53 452.86)">&gt; http</text></g><line class="cls-26" x1="201.53" y1="275.5" x2="201.53" y2="327.21"/><polygon class="cls-27" points="231.9 323.14 171.16 323.14 201.53 353.5 231.9 323.14"/></svg>