<?xml version="1.0" encoding="utf-8"?>
<!-- Generator: Adobe Illustrator 21.1.0, SVG Export Plug-In . SVG Version: 6.00 Build 0)  -->
<svg version="1.1" id="Layer_1" xmlns="http://www.w3.org/2000/svg" xmlns:xlink="http://www.w3.org/1999/xlink" x="0px" y="0px"
	 viewBox="0 0 512 512" style="enable-background:new 0 0 512 512;" xml:space="preserve">
<style type="text/css">
	.st0{display:none;}
	.st1{fill:#4D4D4D;}
</style>
<rect class="st0" width="512" height="512"/>
<g>
	<path class="st1" d="M505,442.7l-99.6-99.6c-4.5-4.5-10.6-7-17-7h-16.3c27.6-35.3,44-79.8,44-128.1C415.9,94.7,323.8,1.6,210.5,0.3
		C93.8-0.9-0.9,93.8,0.3,210.5C1.6,323.8,94.7,415.9,207.9,416c48.4,0.1,92.8-16.3,128.1-44v16.3c0,6.4,2.5,12.5,7,17l99.6,99.6
		c9.4,9.4,24.6,9.4,33.9,0l28.3-28.3C514.2,467.3,514.2,452.1,505,442.7z M207.7,336c-70.6,0-127.9-57.2-127.9-127.9
		c0-70.6,57.2-127.9,127.9-127.9c70.6,0,127.9,57.2,127.9,127.9C335.7,278.8,278.5,336,207.7,336z"/>
</g>
</svg>
