<?xml version="1.0" encoding="utf-8"?>
<!-- Generator: Adobe Illustrator 21.1.0, SVG Export Plug-In . SVG Version: 6.00 Build 0)  -->
<svg version="1.1" id="Layer_1" xmlns="http://www.w3.org/2000/svg" xmlns:xlink="http://www.w3.org/1999/xlink" x="0px" y="0px"
	 viewBox="0 0 512 512" enable-background="new 0 0 512 512" xml:space="preserve">
<rect display="none" width="512" height="512"/>
<g>
	<g>
		<path fill="#2C539E" d="M327,57.5c0-12.4-10.1-22.5-22.5-22.5H169.5C157.1,35,147,45.1,147,57.5v90.1c0,12.4,10.1,22.5,22.5,22.5
			h51.3c28-25.9,65.2-42.1,106.2-43V57.5z M282,125h-90V80h90V125z M393.1,304c1.2-5,1.9-10.2,1.9-15.5c0-10.6-2.6-20.7-7.1-29.5
			H378v-14.1C366.2,232,349.3,224,330.5,224c-10.5,0-20.4,2.5-29.2,7H344v28h-39.5c-12.4,0-22.5,10.1-22.5,22.5V331
			c11.8,13.5,29.2,22,48.5,22c7.9,0,15.4-1.4,22.4-4H327v-45H393.1z M179.5,231c4.5-11.7,10.2-22.8,17.2-33H24.2
			C18,198,13,203,13,209.2v10.5c0,6.2,5,11.2,11.2,11.2H97v28H57.5C45.1,259,35,269.1,35,281.5v90.1c0,12.4,10.1,22.5,22.5,22.5
			h112.1c12.4,0,22.4-10,22.5-22.4c-14.6-24.3-23-52.7-23-83.1c0-10,0.9-19.9,2.7-29.4c-0.7-0.1-1.4-0.1-2.1-0.1H131v-28H179.5z
			 M147,304v45H80v-45H147z"/>
	</g>
</g>
<g>
	<path fill="#4D4D4D" d="M527.5,441.4l-65.8-65.8c-3-3-7-4.6-11.2-4.6h-10.8c18.2-23.3,29.1-52.7,29-84.6
		c-0.1-74.8-60.9-136.2-135.7-137.1c-77-0.8-139.6,61.7-138.8,138.8c0.8,74.8,62.3,135.6,137.1,135.7c31.9,0,61.3-10.8,84.6-29v10.8
		c0,4.2,1.6,8.2,4.6,11.2l65.8,65.8c6.2,6.2,16.2,6.2,22.4,0l18.7-18.7C533.6,457.6,533.6,447.6,527.5,441.4z M331.3,371
		c-46.6,0-84.4-37.7-84.4-84.4c0-46.6,37.7-84.4,84.4-84.4c46.6,0,84.4,37.7,84.4,84.4C415.7,333.2,378,371,331.3,371z"/>
</g>
</svg>
