<svg xmlns="http://www.w3.org/2000/svg" xmlns:xlink="http://www.w3.org/1999/xlink" viewBox="0 0 96.28 117.23"><defs><style>.cls-1,.cls-2{fill:url(#linear-gradient);}.cls-1{clip-rule:evenodd;}.cls-2{fill-rule:evenodd;}.cls-3{clip-path:url(#clip-path);}.cls-4{fill:none;}.cls-5{fill:url(#linear-gradient-3);}.cls-6{fill:url(#linear-gradient-4);}.cls-7{fill:url(#linear-gradient-5);}.cls-8{fill:url(#linear-gradient-6);}.cls-9{fill:url(#linear-gradient-7);}.cls-10{fill:url(#linear-gradient-8);}</style><linearGradient id="linear-gradient" x1="64.7" y1="27.05" x2="26.64" y2="104.7" gradientUnits="userSpaceOnUse"><stop offset="0" stop-color="#41873f"/><stop offset="0.33" stop-color="#418b3d"/><stop offset="0.64" stop-color="#409637"/><stop offset="0.93" stop-color="#3fa92d"/><stop offset="1" stop-color="#3fae2a"/></linearGradient><clipPath id="clip-path"><path id="_Clipping_Path_" data-name="&lt;Clipping Path&gt;" class="cls-1" d="M50.12,8.94a5.09,5.09,0,0,0-5.09,0L2.9,33.25A5.09,5.09,0,0,0,.35,37.66V86.33A5.09,5.09,0,0,0,2.9,90.73L45,115.07a5.09,5.09,0,0,0,5.09,0L92.25,90.73a5.09,5.09,0,0,0,2.54-4.41V37.66a5.09,5.09,0,0,0-2.55-4.41Z"/></clipPath><linearGradient id="linear-gradient-3" x1="41.16" y1="67.68" x2="147.96" y2="-11.23" gradientUnits="userSpaceOnUse"><stop offset="0.14" stop-color="#41873f"/><stop offset="0.4" stop-color="#54a044"/><stop offset="0.71" stop-color="#66b748"/><stop offset="0.91" stop-color="#6cc04a"/></linearGradient><linearGradient id="linear-gradient-4" x1="-1.14" y1="0.17" x2="96.28" y2="0.17" gradientUnits="userSpaceOnUse"><stop offset="0.09" stop-color="#6cc04a"/><stop offset="0.29" stop-color="#66b748"/><stop offset="0.6" stop-color="#54a044"/><stop offset="0.86" stop-color="#41873f"/></linearGradient><linearGradient id="linear-gradient-5" x1="-1.14" y1="61.98" x2="96.28" y2="61.98" xlink:href="#linear-gradient-4"/><linearGradient id="linear-gradient-6" x1="-1.14" y1="89.79" x2="96.28" y2="89.79" xlink:href="#linear-gradient-4"/><linearGradient id="linear-gradient-7" x1="-1.14" y1="102.36" x2="96.28" y2="102.36" xlink:href="#linear-gradient-4"/><linearGradient id="linear-gradient-8" x1="110.47" y1="24.74" x2="50.39" y2="147.31" xlink:href="#linear-gradient"/></defs><title>node.js</title><g id="Layer_2" data-name="Layer 2"><g id="Layer_1-2" data-name="Layer 1"><path id="_Clipping_Path_2" data-name="&lt;Clipping Path&gt;" class="cls-2" d="M50.12,8.94a5.09,5.09,0,0,0-5.09,0L2.9,33.25A5.09,5.09,0,0,0,.35,37.66V86.33A5.09,5.09,0,0,0,2.9,90.73L45,115.07a5.09,5.09,0,0,0,5.09,0L92.25,90.73a5.09,5.09,0,0,0,2.54-4.41V37.66a5.09,5.09,0,0,0-2.55-4.41Z"/><g class="cls-3"><path class="cls-4" d="M44.94,8.94,2.72,33.25A5.26,5.26,0,0,0,0,37.66V86.33a4.92,4.92,0,0,0,1.31,3.24L48.75,8.41A5.17,5.17,0,0,0,44.94,8.94Z"/><path class="cls-4" d="M49,115.56a5.07,5.07,0,0,0,1.19-.49L92.35,90.73A5.19,5.19,0,0,0,95,86.33V37.66a5,5,0,0,0-1.54-3.53Z"/><path class="cls-5" d="M92.33,33.25,50.08,8.94a5.06,5.06,0,0,0-1.32-.53L1.31,89.56a5.8,5.8,0,0,0,1.42,1.17l42.32,24.33a5.14,5.14,0,0,0,3.93.49L93.46,34.12A5.54,5.54,0,0,0,92.33,33.25Z"/><path class="cls-4" d="M95,86.33V37.66a5.21,5.21,0,0,0-2.67-4.41L50.08,8.94a5.07,5.07,0,0,0-1.55-.57L94.84,87.5A4.68,4.68,0,0,0,95,86.33Z"/><path class="cls-4" d="M2.72,33.25A5.26,5.26,0,0,0,0,37.66V86.33a5.28,5.28,0,0,0,2.73,4.41l42.32,24.33a5.13,5.13,0,0,0,3.26.63L3,33.11Z"/><polygon class="cls-6" points="43.63 0 43.05 0.33 43.82 0.33 43.63 0"/><path class="cls-7" d="M92.35,90.73a5.33,5.33,0,0,0,2.49-3.24L48.52,8.37a5.16,5.16,0,0,0-3.58.57L3,33.11,48.31,115.7a5.1,5.1,0,0,0,1.86-.63Z"/><polygon class="cls-8" points="96.28 89.95 96 89.47 96 90.11 96.28 89.95"/><path class="cls-9" d="M92.35,90.73,50.17,115.07a5.1,5.1,0,0,1-1.86.63l.84,1.53L96,90.11v-.64l-1.16-2A5.33,5.33,0,0,1,92.35,90.73Z"/><path class="cls-10" d="M92.35,90.73,50.17,115.07a5.1,5.1,0,0,1-1.86.63l.84,1.53L96,90.11v-.64l-1.16-2A5.33,5.33,0,0,1,92.35,90.73Z"/></g></g></g></svg>