<!-- Generated by IcoMoon.io -->
<svg version="1.1" xmlns="http://www.w3.org/2000/svg" width="1536" height="1536" viewBox="0 0 1536 1536">
<title></title>
<g id="icomoon-ignore">
</g>
<path fill="#000" d="M1119.999 336c0 44.16 35.841 80.001 80.001 80.001s80.001-35.841 80.001-80.001-35.841-80.001-80.001-80.001-80.001 35.841-80.001 80.001zM1119.999 848.001c0 44.16 35.841 80.001 80.001 80.001s80.001-35.841 80.001-80.001-35.841-80.001-80.001-80.001-80.001 35.841-80.001 80.001zM0 1056c0 70.719 57.279 128.001 128.001 128.001h543.999v88.32c-15.681 10.56-29.121 24-39.681 39.681l-392.319-0.003c-44.16 0-80.001 35.841-80.001 80.001s35.841 80.001 80.001 80.001h392.319c25.92 38.721 69.759 63.999 119.679 63.999s93.759-25.281 119.679-63.999h424.323c44.16 0 80.001-35.841 80.001-80.001s-35.841-80.001-80.001-80.001h-424.32c-10.56-15.681-24-29.121-39.681-39.681v-88.317h576c70.719 0 128.001-57.279 128.001-128.001v-927.999c0-70.719-57.279-128.001-128.001-128.001h-1279.998c-70.722 0-128.001 57.279-128.001 128.001v927.999zM230.4 159.999h1075.2c39.039 0 70.401 31.362 70.401 70.401v211.2c0 39.039-31.359 70.401-70.401 70.401h-1075.2c-39.039 0-70.401-31.362-70.401-70.401v-211.2c0-39.039 31.362-70.401 70.401-70.401zM230.4 672h1075.2c39.039 0 70.401 31.359 70.401 70.401v211.2c0 39.039-31.359 70.401-70.401 70.401l-1075.2-0.003c-39.039 0-70.401-31.359-70.401-70.398v-211.2c0-39.042 31.362-70.401 70.401-70.401z"></path>
</svg>
